<svg width="480" height="360" fill="none" xmlns="http://www.w3.org/2000/svg"><path fill="#000" d="M48 111.34h144v222.68H48z"/><path fill="#5C1EB7" d="M204 111.34h144v222.68H204z"/><path d="M0 98.97h36V334.02H0V98.969z" fill="#000"/><path d="M198 0l198 98.97H0L198 0zM360 111.34h120V360l-120-25.979V111.34z" fill="#000"/><path d="M226.8 160.825l2.425 7.693h7.846l-6.348 4.755 2.425 7.693-6.348-4.754-6.348 4.754 2.425-7.693-6.348-4.755h7.846l2.425-7.693zM253.2 180.619l2.425 7.693h7.846l-6.348 4.755 2.425 7.693-6.348-4.755-6.348 4.755 2.425-7.693-6.349-4.755h7.847l2.425-7.693zM241.2 131.134l2.425 7.694h7.846l-6.348 4.754 2.425 7.694-6.348-4.755-6.348 4.755 2.425-7.694-6.348-4.754h7.846l2.425-7.694zM296.325 128.66c-7.3 4.345-12.627 11.502-14.809 19.895-2.181 8.394-1.039 17.338 3.175 24.864 4.215 7.525 11.157 13.017 19.299 15.266 8.142 2.249 16.817 1.072 24.117-3.273 0 0-16.552 1.024-28.736-20.731-12.183-21.755-3.046-36.021-3.046-36.021zM163.911 175.679c0-5.889-7.227-11.471-18.307-14.932 2.557-11.526 1.421-20.696-3.586-23.632-1.155-.688-2.504-1.014-3.978-1.014v4.041c.817 0 1.474.163 2.024.471 2.415 1.414 3.463 6.796 2.646 13.718-.195 1.704-.515 3.498-.905 5.328-3.481-.87-7.28-1.54-11.276-1.975-2.397-3.353-4.882-6.397-7.386-9.061 5.788-5.491 11.222-8.499 14.915-8.499v-4.041c-4.883 0-11.275 3.551-17.738 9.713-6.463-6.125-12.855-9.641-17.738-9.641v4.041c3.675 0 9.126 2.99 14.915 8.445a85.236 85.236 0 00-7.334 9.043c-4.012.435-7.812 1.105-11.292 1.993a55.7 55.7 0 01-.924-5.255c-.834-6.923.196-12.305 2.593-13.736.532-.327 1.225-.472 2.042-.472v-4.041c-1.492 0-2.841.326-4.013 1.015-4.99 2.936-6.108 12.087-3.534 23.577-11.044 3.479-18.235 9.043-18.235 14.914 0 5.89 7.227 11.471 18.306 14.933-2.556 11.525-1.42 20.695 3.587 23.631 1.154.689 2.504 1.015 3.995 1.015 4.883 0 11.275-3.552 17.738-9.714 6.464 6.126 12.856 9.641 17.739 9.641 1.491 0 2.84-.326 4.012-1.015 4.99-2.935 6.108-12.087 3.534-23.576 11.008-3.462 18.2-9.043 18.2-14.915zm-23.119-12.087a82.493 82.493 0 01-2.397 7.158 85.519 85.519 0 00-2.326-4.349 96.421 96.421 0 00-2.557-4.241 78.75 78.75 0 017.28 1.432zm-8.132 19.3c-1.385 2.446-2.805 4.766-4.279 6.922a90.389 90.389 0 01-8.026.363c-2.681 0-5.362-.127-7.99-.344a100.327 100.327 0 01-4.297-6.887 95.464 95.464 0 01-3.693-7.212 95.41 95.41 0 013.675-7.231c1.385-2.447 2.806-4.766 4.28-6.923a90.73 90.73 0 018.025-.362c2.681 0 5.363.127 7.99.344a100.3 100.3 0 014.297 6.886 95.128 95.128 0 013.694 7.213 102.366 102.366 0 01-3.676 7.231zm5.735-2.356a78.835 78.835 0 012.451 7.212 78.063 78.063 0 01-7.316 1.45c.87-1.395 1.74-2.827 2.557-4.295.817-1.449 1.58-2.917 2.308-4.367zm-18.004 19.336a74.34 74.34 0 01-4.936-5.799c1.598.073 3.231.127 4.883.127 1.669 0 3.32-.036 4.936-.127a70.554 70.554 0 01-4.883 5.799zm-13.211-10.674a78.839 78.839 0 01-7.28-1.431 82.462 82.462 0 012.398-7.159c.728 1.45 1.491 2.9 2.326 4.35a120.153 120.153 0 002.556 4.24zm13.122-37.712a74.34 74.34 0 014.936 5.799 108.392 108.392 0 00-4.883-.127c-1.669 0-3.32.037-4.936.127a70.554 70.554 0 014.883-5.799zm-13.139 10.674a101.12 101.12 0 00-4.865 8.644 78.669 78.669 0 01-2.45-7.212 84.76 84.76 0 017.315-1.432zm-16.07 22.689c-6.285-2.736-10.351-6.325-10.351-9.17 0-2.845 4.066-6.451 10.352-9.17 1.527-.67 3.196-1.268 4.918-1.83 1.012 3.552 2.344 7.249 3.995 11.036-1.633 3.77-2.948 7.449-3.942 10.982a53.172 53.172 0 01-4.971-1.848zm9.553 25.896c-2.415-1.413-3.462-6.795-2.645-13.718.195-1.704.514-3.498.905-5.328 3.48.87 7.28 1.54 11.275 1.975 2.397 3.353 4.883 6.397 7.387 9.061-5.789 5.491-11.222 8.5-14.915 8.5-.799-.018-1.474-.182-2.007-.49zm42.117-13.809c.835 6.923-.195 12.305-2.592 13.737-.533.326-1.225.471-2.042.471-3.675 0-9.127-2.99-14.915-8.445a85.108 85.108 0 007.333-9.043c4.013-.435 7.813-1.105 11.293-1.993.408 1.83.728 3.588.923 5.273zm6.836-12.087c-1.527.67-3.196 1.268-4.918 1.83-1.012-3.552-2.344-7.249-3.995-11.036 1.633-3.769 2.947-7.448 3.942-10.982a55.72 55.72 0 014.989 1.848c6.286 2.737 10.352 6.325 10.352 9.17-.018 2.845-4.084 6.452-10.37 9.17z" fill="#fff"/><path d="M120.338 183.961c4.481 0 8.114-3.708 8.114-8.282s-3.633-8.282-8.114-8.282c-4.482 0-8.115 3.708-8.115 8.282s3.633 8.282 8.115 8.282zM316.006 264.153l7.994 4.733-6.593 11.71-7.994-4.733 6.593-11.71z" fill="#fff"/><path d="M250.786 217.732l68.517 40.566-9.89 17.565-3.296 5.855-68.517-40.565 13.186-23.421z" fill="#fff"/><path fill-rule="evenodd" clip-rule="evenodd" d="M269.175 259.847l-21.026 74.174h8.105l6.4-24.34h9.809v24.34h8.104v-24.34h8.459l6.4 24.34h8.104l-18.46-64.764-15.895-9.41zm3.288 16.52l-.705 2.506-7.786 24.047h8.491v-26.553zm8.104 0l.646 2.506 6.494 24.047h-7.14v-26.553z" fill="#fff"/><path d="M272.463 278.873v-2.506l-.705 2.506h.705zM280.567 276.367v2.506h.646l-.646-2.506z" fill="#fff"/></svg>